<svg width="600" height="142" viewBox="0 0 600 142" fill="none" xmlns="http://www.w3.org/2000/svg"><path d="M240.464 123.045c0-3.791-3.093-6.445-6.572-6.445h-8.119c-.386 0-.773.379-.773.759v20.092c0 .379.387.758.773.758h1.16c.387 0 .773-.379.773-.758v-7.582h5.799l4.253 7.961.387.379h1.546c.387 0 .773-.379.387-.758l-4.253-8.34c2.706-.759 4.639-3.412 4.639-6.066zm-6.959 4.549h-5.799v-8.719h5.799c2.32 0 4.253 1.895 4.253 4.17.387 2.654-1.546 4.549-4.253 4.549zm17.397 10.236c.387 0 .774-.379.774-.758v-20.093c0-.379-.387-.758-.774-.758h-1.159c-.387 0-.774.379-.774.758v20.093c0 .379.387.758.774.758h1.159zm30.542-10.615c0-6.065-5.026-10.994-11.212-10.994-6.185 0-11.211 4.929-11.211 10.994 0 6.066 5.026 10.994 11.211 10.994 6.186 0 11.212-4.928 11.212-10.994zm-19.717 0c0-4.928 3.866-8.719 8.892-8.719s8.892 4.17 8.892 8.719c0 4.928-3.866 8.719-8.892 8.719s-8.892-3.791-8.892-8.719zm125.644 8.719c-2.706 0-5.025-2.274-5.025-2.274-.387-.379-.773 0-1.16.379 0 0-.387.379-.387.758-.386.758 0 .758 0 1.137.387.379 2.707 2.275 6.572 2.275 3.48 0 6.573-2.275 6.573-5.307 0-3.412-2.706-4.929-6.959-6.824-2.706-1.137-4.253-2.275-4.253-4.17 0-1.138 1.16-3.412 4.253-3.412 1.933 0 3.866 1.137 3.866 1.516.386.379.773 0 1.16-.379 0 0 .386-.379.386-.758.387-.758 0-.758 0-1.137 0 0-2.319-1.517-5.412-1.517-5.026 0-6.572 3.412-6.572 5.308 0 3.412 1.933 4.928 5.412 6.444 3.48 1.517 5.412 2.654 5.412 4.929.387 1.516-1.159 3.032-3.866 3.032zm16.238 1.896c.386 0 .773-.379.773-.758v-20.093c0-.379-.387-.758-.773-.758h-1.16c-.387 0-.773.379-.773.758v20.093c0 .379.386.758.773.758h1.16zm11.984-21.23h-1.16c-.386 0-.773.379-.773.759v20.092c0 .379.387.758.773.758h10.439c.386 0 .773-.379.773-.758v-.758c0-.38-.387-.759-.773-.759h-8.892v-18.575c.386-.38 0-.759-.387-.759zm-125.644 17.06h-1.933c-.387 2.654-1.16 5.307-1.933 8.34h1.16c1.159-2.275 2.319-4.928 2.706-8.34zm-73.84-101.599v-.379c-.774-.758-1.16-1.137-1.547-1.137-6.185-5.308-12.758-7.961-20.876-7.961-17.011 0-30.928 13.647-30.928 30.707 0 16.68 13.917 30.328 30.928 30.328 8.118 0 15.464-3.033 20.876-8.34l1.547-1.517-5.413-5.307c-.386-.38-1.546-.759-2.706 0-3.866 2.653-8.119 5.307-14.304 5.307-11.598 0-20.877-9.478-20.877-21.23s9.279-21.23 20.877-21.23c5.026 0 10.438 1.896 14.304 5.687.387.38 1.16.759 1.546.759.387 0 .774 0 1.16-.759l3.866-3.79c.387 0 .773-.38 1.547-1.138zm128.35 9.857c0-10.236-8.505-18.197-18.943-18.197h-12.758c-6.572 0-11.984 5.307-11.984 12.131V83.24h7.731c1.16 0 1.933-.759 1.933-1.896v-21.23h11.985l11.211 21.988c.387.38.774 1.138 1.547 1.138h10.051l-13.144-23.884c7.732-3.412 12.371-10.236 12.371-17.438zm-11.984 6.444a9.599 9.599 0 01-7.346 3.412h-14.691V36.61c0-2.274 1.933-4.17 4.253-4.17h10.052c4.639 0 9.278 3.791 10.051 7.961.387 3.033-.386 5.687-2.319 7.961zm42.139 32.603V23.342h-7.732c-1.16 0-1.933.758-1.933 1.895V82.86h7.732c.773 0 1.933-.758 1.933-1.895zm30.928-57.623h-7.732v37.151c0 13.269 10.051 23.126 23.196 23.126 13.53 0 23.582-9.857 23.582-23.126V23.342h-7.732c-1.16 0-1.933.758-1.933 1.895v34.877c0 8.34-5.799 14.406-13.917 14.406-8.119 0-13.531-6.065-13.531-14.406V25.616c0-1.137-.774-2.274-1.933-2.274zM238.918 80.965l5.026-12.51h25.128l5.026 12.51c.387 1.137 1.547 1.895 3.093 1.895h8.119L262.5 24.48c-.386-.76-.773-1.138-1.546-1.138h-8.119c-.773 0-1.546.379-1.546 1.137L228.093 82.86h8.119c1.159 0 2.319-.758 2.706-1.895zm17.783-44.734l9.279 23.504h-18.557l9.278-23.504zm209.923 46.63h8.892c.386 0 1.16-.38 1.16-1.138V37.748l14.69 43.596c.387.758 1.16 1.516 1.933 1.516h6.573c.773 0 1.546-.758 1.933-1.516l14.69-43.596v44.354c0 .38.387 1.138 1.16 1.138h8.892V23.342h-12.371c-1.16 0-2.32.758-2.706 1.895l-15.078 43.218-14.304-42.839c-.387-1.137-1.546-1.895-2.706-1.895h-12.371v59.14h-.387zM.773 54.428L31.314 87.41c17.397 18.955 42.913 17.817 103.609 14.405a3.836 3.836 0 003.866-3.79c0-2.275-1.547-3.791-3.866-3.791h-.387c-19.716 0-31.701-14.406-43.299-26.917l-13.53-15.164v-.758l13.53-15.164C102.835 24.1 114.82 9.315 134.536 9.315h.387c1.933 0 3.866-1.516 3.866-3.79 0-2.276-1.16-3.792-3.866-3.792C74.227-1.3 48.325-2.437 31.314 16.518L1.16 49.878C.387 50.638 0 51.396 0 52.154c0 .759.387 1.517.773 2.275zm84.279 18.197c7.732 8.34 17.01 17.817 25.128 23.504-17.783-1.517-28.994-14.406-42.139-28.433L57.603 56.325h8.505c2.32 0 4.64 1.137 6.186 2.653l12.758 13.648zm2.32 23.125c-17.011-1.516-25.13-10.615-41.367-28.433L35.567 55.944h8.505c2.32 0 4.64 1.138 6.186 2.654l12.758 13.648c7.345 8.719 15.85 18.197 24.355 23.504zM110.18 8.178c-8.118 5.686-17.396 15.164-25.128 23.504L72.68 45.709c-1.546 1.895-3.866 2.653-6.185 2.653H57.99L68.428 36.99C81.186 22.584 92.397 9.694 110.18 8.178zM62.629 31.682L49.87 45.33c-1.546 1.895-3.866 2.653-6.185 2.653H35.18L45.62 36.61C61.856 18.793 69.974 9.694 86.985 8.178c-8.119 5.686-16.624 15.164-24.356 23.504zM23.196 36.61c16.237-17.817 22.036-24.262 39.433-26.537-8.119 5.687-14.304 12.89-22.423 21.609L27.836 45.33c-1.547 1.895-3.867 2.653-6.186 2.653h-8.892L23.196 36.61zm-1.933 19.334c2.32 0 4.64 1.138 6.185 2.654L39.82 72.246c8.118 8.719 14.69 15.922 22.422 21.608-17.01-2.274-22.809-8.719-39.433-26.537L12.371 55.565h8.892v.38zm553.608-32.602h-8.118c-.774 0-1.547.379-1.547 1.137L542.397 82.86h8.118c1.16 0 2.707-.758 3.093-1.895l5.026-12.51h25.129l5.026 12.51c.386 1.137 1.546 1.895 3.092 1.895H600l-22.809-58.38c-1.16-.76-1.933-1.138-2.32-1.138zM561.34 59.735l9.279-23.504 9.278 23.504H561.34zm-236.985 62.552c0-3.033-2.706-5.687-6.185-5.687h-6.572c-.387 0-.773.379-.773.759v20.092c0 .379.386.758.773.758h6.959c3.866 0 6.572-2.275 6.572-5.686 0-2.654-1.933-4.171-3.866-4.929 1.546-1.516 3.092-3.033 3.092-5.307zm-1.932 9.856c0 2.275-1.547 3.791-3.866 3.791h-5.413v-7.582h5.026c2.32 0 4.253 1.517 4.253 3.791zm-4.253-6.065h-5.026v-7.582h5.026c2.32 0 3.866 1.516 3.866 3.791 0 2.274-1.546 3.791-3.866 3.791zm30.541-3.033c0-3.791-3.093-6.445-6.572-6.445h-8.119c-.386 0-.773.379-.773.759v20.092c0 .379.387.758.773.758h1.16c.387 0 .773-.379.773-.758v-7.582h5.799l4.253 7.961.387.379h1.546c.387 0 .773-.379.387-.758l-4.253-7.582c2.706-1.517 4.639-4.17 4.639-6.824zm-6.572 4.549h-5.799v-8.719h5.799c2.32 0 4.253 1.895 4.253 4.17 0 2.654-1.933 4.549-4.253 4.549zm14.691 10.236c.386 0 .386 0 .386-.379l2.32-4.928h10.825l2.319 4.928.387.379h1.16c.386 0 .773-.379.386-.758l-9.278-20.472-.387-.379h-.386c-.387 0-.387 0-.387.379l-9.278 20.472c0 .379 0 .758.386.758h1.547zm8.118-17.06c1.933 3.412 3.093 6.824 4.639 9.857h-9.278l4.639-9.857z" fill="#000"/></svg>